<svg xmlns="http://www.w3.org/2000/svg" width="17.521" height="17.521" viewBox="0 0 17.521 17.521">
  <g id="그룹_6284" transform="translate(-1646.001 -8460)">
    <path id="패스_191" d="M12.84,5.658c2.339,0,2.616.009,3.54.051a4.849,4.849,0,0,1,1.627.3,2.9,2.9,0,0,1,1.663,1.663,4.849,4.849,0,0,1,.3,1.627c.042.924.051,1.2.051,3.54s-.009,2.616-.051,3.54a4.849,4.849,0,0,1-.3,1.627,2.9,2.9,0,0,1-1.663,1.663,4.849,4.849,0,0,1-1.627.3c-.924.042-1.2.051-3.54.051s-2.616-.009-3.54-.051a4.849,4.849,0,0,1-1.627-.3A2.9,2.9,0,0,1,6.01,18.007a4.849,4.849,0,0,1-.3-1.627c-.042-.924-.051-1.2-.051-3.54s.009-2.616.051-3.54a4.849,4.849,0,0,1,.3-1.627A2.9,2.9,0,0,1,7.673,6.01a4.849,4.849,0,0,1,1.627-.3c.924-.042,1.2-.051,3.54-.051m0-1.579c-2.379,0-2.678.01-3.612.053A6.43,6.43,0,0,0,7.1,4.539,4.48,4.48,0,0,0,4.539,7.1a6.43,6.43,0,0,0-.407,2.127c-.043.934-.053,1.233-.053,3.612s.01,2.678.053,3.612a6.43,6.43,0,0,0,.407,2.127A4.48,4.48,0,0,0,7.1,21.141a6.43,6.43,0,0,0,2.127.407c.934.043,1.233.053,3.612.053s2.678-.01,3.612-.053a6.43,6.43,0,0,0,2.127-.407,4.48,4.48,0,0,0,2.562-2.562,6.43,6.43,0,0,0,.407-2.127c.043-.934.053-1.233.053-3.612s-.01-2.678-.053-3.612A6.43,6.43,0,0,0,21.141,7.1a4.48,4.48,0,0,0-2.562-2.562,6.43,6.43,0,0,0-2.127-.407c-.934-.043-1.233-.053-3.612-.053Z" transform="translate(1641.922 8455.921)"/>
    <path id="패스_192" d="M131.134,126.635a4.5,4.5,0,1,0,4.5,4.5A4.5,4.5,0,0,0,131.134,126.635Zm0,7.419a2.92,2.92,0,1,1,2.92-2.92A2.92,2.92,0,0,1,131.134,134.054Z" transform="translate(1523.627 8337.627)"/>
    <g id="그룹_6283" transform="translate(1642.444 8455.921)">
      <circle id="타원_23" cx="1.051" cy="1.051" r="1.051" transform="translate(16.465 7.112)"/>
    </g>
  </g>
</svg>
