<svg width="164" height="23" viewBox="0 0 164 23" fill="none" xmlns="http://www.w3.org/2000/svg">
<path d="M5.76 16.7C3.12 16.7 1.38 15.58 0.06 14.08L2.54 12.12C3.28 13.38 4.42 14.1 5.74 14.1C7.18 14.1 7.96 13.16 7.96 12.14C7.96 10.9 6.48 10.52 4.92 10.04C2.96 9.42 0.78 8.66 0.78 5.88C0.78 3.54 2.82 1.7 5.62 1.7C7.98 1.7 9.34 2.6 10.52 3.82L8.28 5.52C7.66 4.6 6.8 4.12 5.64 4.12C4.32 4.12 3.6 4.84 3.6 5.78C3.6 6.94 5 7.32 6.58 7.84C8.56 8.48 10.8 9.36 10.8 12.16C10.8 14.46 8.96 16.7 5.76 16.7ZM17.7225 16.74C14.9025 16.74 11.9625 14.48 11.9625 10.66C11.9625 6.78 14.8025 4.56 17.7625 4.56C19.3025 4.56 20.6825 5.2 21.5225 6.2V4.8H24.2225V16.5H21.5225V14.98C20.6625 16.06 19.2625 16.74 17.7225 16.74ZM18.1625 14.26C20.1625 14.26 21.6625 12.64 21.6625 10.62C21.6625 8.64 20.1625 7.02 18.1625 7.02C16.1625 7.02 14.6225 8.6 14.6225 10.62C14.6225 12.66 16.1625 14.26 18.1625 14.26ZM25.8581 16.5V4.8H28.5381V6.16C29.2781 5.18 30.4381 4.56 31.8781 4.56C33.6981 4.56 34.9781 5.32 35.6781 6.58C36.4781 5.36 37.8581 4.56 39.5181 4.56C42.6581 4.56 44.2781 6.44 44.2781 9.46V16.5H41.5181V9.68C41.5181 7.98 40.6381 6.9 38.9781 6.9C37.5181 6.9 36.3981 7.92 36.3981 9.96V16.5H33.6581V9.6C33.6581 7.94 32.8181 6.9 31.1981 6.9C29.6781 6.9 28.5581 7.94 28.5581 10.02V16.5H25.8581ZM50.2191 16.74C47.6591 16.74 45.9591 15.74 45.0191 13.9L47.5191 12.7C48.0791 13.78 49.0791 14.4 50.3391 14.4C51.6591 14.4 52.3391 13.74 52.3391 12.98C52.3391 12.14 51.0391 11.94 49.5991 11.64C47.5791 11.24 45.4991 10.56 45.4991 8.12C45.4991 6.24 47.2991 4.52 50.0991 4.54C52.4191 4.54 53.9791 5.48 54.8791 6.96L52.5791 8.12C52.0991 7.3 51.2191 6.78 50.0991 6.78C48.8191 6.78 48.2191 7.38 48.2191 8.04C48.2191 8.82 49.1591 9.02 50.8991 9.4C52.8191 9.8 55.0191 10.46 55.0191 12.92C55.0191 14.56 53.5591 16.76 50.2191 16.74ZM66.613 4.8V16.5H63.933V15.16C63.193 16.14 62.053 16.74 60.573 16.74C57.813 16.74 56.073 14.86 56.073 11.74V4.8H58.813V11.46C58.813 13.26 59.613 14.4 61.313 14.4C62.793 14.4 63.913 13.26 63.913 11.22V4.8H66.613ZM68.28 16.5V4.8H70.96V6.24C71.74 5.22 72.96 4.56 74.46 4.56C77.34 4.56 79.1 6.44 79.1 9.56V16.5H76.36V9.84C76.36 8.04 75.48 6.9 73.72 6.9C72.18 6.9 70.98 8.04 70.98 10.08V16.5H68.28ZM89.8628 16.3V14.94C89.0028 16.04 87.6028 16.74 86.0428 16.74C83.2228 16.74 80.2828 14.48 80.2828 10.66C80.2828 6.78 83.1228 4.56 86.0828 4.56C87.6228 4.56 89.0028 5.24 89.8428 6.3V4.8H92.5428V16.2C92.5428 19.48 90.4628 22.16 86.5028 22.16C83.4628 22.16 81.5828 20.76 80.5028 18.8L82.9028 17.34C83.7428 18.9 84.6828 19.68 86.5428 19.68C88.5828 19.68 89.8628 18.08 89.8628 16.3ZM86.4828 14.26C88.4828 14.26 89.9828 12.64 89.9828 10.62C89.9828 8.64 88.4828 7.02 86.4828 7.02C84.4828 7.02 82.9428 8.6 82.9428 10.62C82.9428 12.66 84.4828 14.26 86.4828 14.26ZM99.0822 16.5V1.9H103.062C107.982 1.9 110.782 5.06 110.782 9.2C110.782 13.36 107.622 16.5 103.182 16.5H99.0822ZM102.742 4.42H101.802V13.98H102.862C106.042 13.98 108.062 11.92 108.062 9.2C108.062 6.4 106.342 4.42 102.742 4.42ZM117.791 16.74C114.111 16.74 111.611 14.06 111.611 10.68C111.611 7.26 114.271 4.56 117.691 4.56C121.171 4.56 123.711 7.12 123.711 10.58V11.6H114.191C114.551 13.24 115.871 14.36 117.791 14.36C119.291 14.36 120.471 13.54 121.031 12.3L123.251 13.58C122.231 15.46 120.391 16.74 117.791 16.74ZM117.691 6.94C116.071 6.94 114.811 7.92 114.331 9.34H120.971C120.571 7.78 119.371 6.94 117.691 6.94ZM129.321 16.74C126.761 16.74 125.061 15.74 124.121 13.9L126.621 12.7C127.181 13.78 128.181 14.4 129.441 14.4C130.761 14.4 131.441 13.74 131.441 12.98C131.441 12.14 130.141 11.94 128.701 11.64C126.681 11.24 124.601 10.56 124.601 8.12C124.601 6.24 126.401 4.52 129.201 4.54C131.521 4.54 133.081 5.48 133.981 6.96L131.681 8.12C131.201 7.3 130.321 6.78 129.201 6.78C127.921 6.78 127.321 7.38 127.321 8.04C127.321 8.82 128.261 9.02 130.001 9.4C131.921 9.8 134.121 10.46 134.121 12.92C134.121 14.56 132.661 16.76 129.321 16.74ZM135.272 16.5V4.8H137.992V16.5H135.272ZM134.932 1.94C134.932 0.919999 135.592 0.24 136.632 0.24C137.692 0.24 138.332 0.919999 138.332 1.94C138.332 2.94 137.692 3.62 136.632 3.62C135.552 3.62 134.932 2.94 134.932 1.94ZM148.75 16.3V14.94C147.89 16.04 146.49 16.74 144.93 16.74C142.11 16.74 139.17 14.48 139.17 10.66C139.17 6.78 142.01 4.56 144.97 4.56C146.51 4.56 147.89 5.24 148.73 6.3V4.8H151.43V16.2C151.43 19.48 149.35 22.16 145.39 22.16C142.35 22.16 140.47 20.76 139.39 18.8L141.79 17.34C142.63 18.9 143.57 19.68 145.43 19.68C147.47 19.68 148.75 18.08 148.75 16.3ZM145.37 14.26C147.37 14.26 148.87 12.64 148.87 10.62C148.87 8.64 147.37 7.02 145.37 7.02C143.37 7.02 141.83 8.6 141.83 10.62C141.83 12.66 143.37 14.26 145.37 14.26ZM153.104 16.5V4.8H155.784V6.24C156.564 5.22 157.784 4.56 159.284 4.56C162.164 4.56 163.924 6.44 163.924 9.56V16.5H161.184V9.84C161.184 8.04 160.304 6.9 158.544 6.9C157.004 6.9 155.804 8.04 155.804 10.08V16.5H153.104Z" fill="black"/>
</svg>
