<svg width="34" height="35" viewBox="0 0 34 35" fill="none" xmlns="http://www.w3.org/2000/svg">
<path d="M17 0.511719C12.3831 0.511719 11.8042 0.531305 9.9909 0.614004C8.18145 0.696551 6.94568 0.983972 5.86432 1.40415C4.74642 1.83859 3.79837 2.41991 2.85331 3.36498C1.90819 4.31004 1.32687 5.25819 0.892478 6.37609C0.472203 7.4574 0.184883 8.69317 0.102235 10.5026C0.0195359 12.3159 0 12.8948 0 17.5118C0 22.1286 0.0195359 22.7076 0.102235 24.5208C0.184883 26.3303 0.472203 27.566 0.892478 28.6473C1.32692 29.7652 1.90824 30.7133 2.85331 31.6585C3.79842 32.6035 4.74642 33.1848 5.86432 33.6193C6.94568 34.0395 8.18145 34.3268 9.9909 34.4094C11.8042 34.4921 12.3831 34.5117 17 34.5117C21.6169 34.5117 22.1958 34.4921 24.0091 34.4094C25.8185 34.3269 27.0543 34.0395 28.1356 33.6193C29.2535 33.1848 30.2016 32.6035 31.1467 31.6585C32.0918 30.7133 32.6731 29.7652 33.1076 28.6473C33.5277 27.566 33.8152 26.3303 33.8977 24.5208C33.9804 22.7076 34 22.1286 34 17.5118C34 12.8948 33.9804 12.3159 33.8977 10.5026C33.8152 8.69317 33.5277 7.4574 33.1076 6.37609C32.6731 5.25819 32.0918 4.31004 31.1467 3.36498C30.2016 2.41991 29.2535 1.83859 28.1356 1.40415C27.0543 0.983972 25.8185 0.696551 24.0091 0.614004C22.1958 0.531305 21.6169 0.511719 17 0.511719ZM17 3.57476C21.5392 3.57476 22.0769 3.59212 23.8695 3.67391C25.527 3.74947 26.4271 4.02641 27.0261 4.25923C27.8197 4.56765 28.386 4.936 28.9808 5.53088C29.5757 6.12577 29.9441 6.69211 30.2525 7.48559C30.4853 8.08462 30.7622 8.98479 30.8378 10.6423C30.9196 12.4349 30.937 12.9726 30.937 17.5117C30.937 22.0509 30.9196 22.5886 30.8378 24.3812C30.7622 26.0387 30.4853 26.9388 30.2525 27.5378C29.9441 28.3314 29.5757 28.8977 28.9808 29.4925C28.386 30.0874 27.8196 30.4558 27.0261 30.7642C26.4271 30.997 25.5269 31.274 23.8695 31.3495C22.0772 31.4313 21.5395 31.4487 17 31.4487C12.4605 31.4487 11.9229 31.4313 10.1305 31.3495C8.47302 31.274 7.5729 30.997 6.97392 30.7642C6.18034 30.4558 5.61405 30.0874 5.01921 29.4925C4.42433 28.8977 4.05593 28.3313 3.74751 27.5378C3.51469 26.9388 3.2378 26.0386 3.16219 24.3812C3.0804 22.5886 3.06304 22.0509 3.06304 17.5117C3.06304 12.9726 3.0804 12.4349 3.16219 10.6423C3.2378 8.98474 3.51469 8.08462 3.74751 7.48564C4.05593 6.69206 4.42433 6.12577 5.01916 5.53093C5.61405 4.936 6.18039 4.56765 6.97387 4.25923C7.5729 4.02641 8.47307 3.74947 10.1305 3.67391C11.9231 3.59212 12.4609 3.57476 17 3.57476Z" fill="white"/>
<path d="M17.0032 23.1798C13.8735 23.1798 11.3365 20.6428 11.3365 17.5132C11.3365 14.3835 13.8735 11.8464 17.0032 11.8464C20.1328 11.8464 22.6698 14.3835 22.6698 17.5132C22.6698 20.6428 20.1328 23.1798 17.0032 23.1798ZM17.0032 8.78339C12.1818 8.78339 8.27344 12.6918 8.27344 17.5132C8.27344 22.3344 12.1818 26.2428 17.0032 26.2428C21.8245 26.2428 25.7329 22.3344 25.7329 17.5132C25.7329 12.6918 21.8245 8.78339 17.0032 8.78339ZM28.1178 8.43847C28.1178 9.56518 27.2045 10.4785 26.0778 10.4785C24.9512 10.4785 24.0378 9.56518 24.0378 8.43847C24.0378 7.31182 24.9512 6.39844 26.0778 6.39844C27.2045 6.39844 28.1178 7.31182 28.1178 8.43847Z" fill="white"/>
</svg>
