<svg width="24" height="24" viewBox="0 0 24 24" fill="none" xmlns="http://www.w3.org/2000/svg">
  <path d="M10.832 0.133789C16.741 0.133789 21.5312 4.924 21.5312 10.833C21.5312 13.337 20.6675 15.6372 19.2266 17.46L23.8652 22.0986L22.0977 23.8662L17.459 19.2275C15.6362 20.6685 13.336 21.5322 10.832 21.5322C4.92302 21.5322 0.132812 16.742 0.132812 10.833C0.132844 4.92402 4.92304 0.13382 10.832 0.133789ZM10.832 2.63379C6.30375 2.63382 2.63284 6.30473 2.63281 10.833C2.63281 15.3613 6.30373 19.0322 10.832 19.0322C15.3604 19.0322 19.0312 15.3613 19.0312 10.833C19.0312 6.30471 15.3603 2.63379 10.832 2.63379Z" fill="#040000"/>
</svg>

